<?xml version="1.0" encoding="UTF-8"?>
<svg version="1.1" xmlns="http://www.w3.org/2000/svg" width="500" height="500">
<path d="M0 0 C165 0 330 0 500 0 C500 165 500 330 500 500 C335 500 170 500 0 500 C0 335 0 170 0 0 Z " fill="#FEFEFE" transform="translate(0,0)"/>
<path d="M0 0 C100.67752101 0 100.67752101 0 116.83984375 15.63671875 C119.51552262 18.56399853 121.81565089 21.6904761 124.15625 24.88671875 C126.2281599 27.26151379 128.35368784 28.73572998 131 30.4375 C136.5123791 34.05656956 139.66660289 38.37600648 143 44 C143.39960938 44.65871094 143.79921875 45.31742188 144.2109375 45.99609375 C147.33125122 51.63846555 148.62065077 57.74745541 150 64 C150.16021637 64.63281387 150.32043274 65.26562775 150.48550415 65.9176178 C151.91356301 71.76703624 152.4142241 77.39907622 152.609375 83.40625 C152.66505646 84.89324402 152.66505646 84.89324402 152.72186279 86.41027832 C153.13731774 98.43714834 153.24372648 110.46675513 153.25 122.5 C153.25067474 123.67578613 153.25134949 124.85157227 153.25204468 126.06298828 C153.23932221 140.07814912 153.10528902 154.0378786 151.8125 168 C151.71163086 169.15177734 151.61076172 170.30355469 151.50683594 171.49023438 C149.77344258 187.08610234 143.43853712 202.89540472 131 213 C125.13095238 217 125.13095238 217 122 217 C122.17539307 217.56581787 122.35078613 218.13163574 122.53149414 218.71459961 C126.66143583 232.07302777 130.58119709 245.47530063 134.31640625 258.94921875 C135.84298466 264.45552523 137.415906 269.94752199 139 275.4375 C141.55770172 284.31533207 143.94022915 293.23575404 146.31103516 302.16503906 C148.59506331 310.68549017 151.10444877 319.12291042 153.77905273 327.52880859 C154.05563721 328.41004395 154.33222168 329.2912793 154.6171875 330.19921875 C154.86065918 330.96065186 155.10413086 331.72208496 155.35498047 332.5065918 C156.15931823 335.61586566 156.54580746 338.82065222 157 342 C141.82 342 126.64 342 111 342 C108.75546975 336.014586 107.24234797 331.11617464 106 325 C101.38 324.67 96.76 324.34 92 324 C89.96287978 315.91247019 87.9445313 307.82128569 86 299.7109375 C85.83532227 299.02533752 85.67064453 298.33973755 85.50097656 297.63336182 C84.83222383 294.84811423 84.16386488 292.06278441 83.5 289.27636719 C81.49275542 280.85926929 79.33020198 272.52598588 76.91064453 264.21533203 C75.60165517 259.59351169 74.50559335 254.93234862 73.4375 250.25 C72.04984341 244.17728503 70.52252111 238.23448752 68.57055664 232.31542969 C67.95074539 229.80011524 67.90155524 227.58067954 68 225 C66.02 225 64.04 225 62 225 C62 263.61 62 302.22 62 342 C47.48 342 32.96 342 18 342 C18 336.06 18 330.12 18 324 C12.06 324 6.12 324 0 324 C0 217.08 0 110.16 0 0 Z " fill="#8C52FE" transform="translate(184,81)"/>
<path d="M0 0 C15.18 0 30.36 0 46 0 C46.495 8.91 46.495 8.91 47 18 C52.61 18 58.22 18 64 18 C64.56407383 22.60397692 65.1267624 27.20811615 65.6875 31.8125 C65.81946777 32.89550888 65.81946777 32.89550888 65.95410156 34.00039673 C67.07767133 43.23398069 68.1765176 52.47003242 69.23828125 61.7109375 C69.34174866 62.61115128 69.44521606 63.51136505 69.55181885 64.43885803 C69.70768463 65.79520607 69.70768463 65.79520607 69.86669922 67.17895508 C71.63199991 82.53980008 73.4595341 97.88167183 75.55078125 113.20214844 C76.97298744 123.6536435 78.25374955 134.11907969 79.49145508 144.59375 C80.3065982 151.46258826 81.1674549 158.31958576 82.140625 165.16796875 C84.30846286 180.56465579 85.55486905 195.44825347 85 211 C85.66 211 86.32 211 87 211 C86.97679688 210.14664063 86.95359375 209.29328125 86.9296875 208.4140625 C86.41552832 172.79017633 92.49586763 136.852165 97.19677734 101.61889648 C99.69995386 82.85043328 101.94660057 64.052688 104.13853455 45.24562073 C104.54757433 41.7361875 104.95746188 38.226854 105.36743164 34.7175293 C105.90898901 30.08135019 106.44668715 25.44474469 106.98217773 20.80786133 C107.23149568 18.66746737 107.48092108 16.52708593 107.73046875 14.38671875 C107.84384583 13.39658783 107.9572229 12.40645691 108.07403564 11.38632202 C108.18132996 10.47081573 108.28862427 9.55530945 108.39916992 8.61206055 C108.49147385 7.81446823 108.58377777 7.01687592 108.67887878 6.19511414 C109 4 109 4 110 0 C124.85 0 139.7 0 155 0 C155 9 155 9 154 18 C160.27 18 166.54 18 173 18 C173 22.94685055 172.99793522 27.00457066 172.30078125 31.75390625 C172.06875 33.37558716 172.06875 33.37558716 171.83203125 35.0300293 C171.66058594 36.19574463 171.48914063 37.36145996 171.3125 38.5625 C170.94234076 41.16384101 170.5736037 43.7653425 170.20703125 46.3671875 C170.10975739 47.05489731 170.01248352 47.74260712 169.91226196 48.45115662 C168.70562132 57.02087901 167.59912119 65.603429 166.5 74.1875 C166.3414151 75.4235347 166.3414151 75.4235347 166.17962646 76.68453979 C165.05578998 85.46062275 163.95818536 94.23907965 162.93359375 103.02734375 C162.84844513 103.75751205 162.76329651 104.48768036 162.67556763 105.23997498 C162.28423818 108.60751244 161.89811555 111.97548019 161.51953125 115.34448242 C160.52969596 123.99935477 159.36830512 132.62289406 158.16015625 141.25 C155.84596395 157.81846987 153.80922151 174.41821014 151.78643799 191.02435303 C150.93344722 198.0244028 150.07671283 205.02399557 149.21875 212.0234375 C149.12567566 212.7829496 149.03260132 213.5424617 148.93670654 214.32498932 C146.21650961 236.50282346 143.33548413 258.65941723 140.36190796 280.8046875 C138.805237 292.3980073 137.24860276 303.99124079 135.76171875 315.59375 C135.66827179 316.32267456 135.57482483 317.05159912 135.47854614 317.8026123 C135.05099676 321.14342337 134.62640339 324.48456784 134.20507812 327.82617188 C134.05876953 328.97666016 133.91246094 330.12714844 133.76171875 331.3125 C133.5754895 332.79169922 133.5754895 332.79169922 133.38549805 334.30078125 C133.01529295 336.89292032 132.5235737 339.43519561 132 342 C122.62964062 342.02312504 113.25929099 342.04091591 103.88890934 342.05181217 C99.53831541 342.05704065 95.18774093 342.06413765 90.8371582 342.07543945 C86.64209742 342.08626959 82.44705541 342.0922771 78.25198174 342.09487724 C76.64793032 342.09673126 75.04387997 342.10035144 73.4398365 342.10573006 C71.20083485 342.11294219 68.9619117 342.11399087 66.72290039 342.11352539 C65.44604874 342.115746 64.16919708 342.11796661 62.85365295 342.12025452 C60 342 60 342 59 341 C57.91191626 335.3177849 57.89547955 329.77185149 58 324 C56.85660156 324.01160156 55.71320312 324.02320313 54.53515625 324.03515625 C53.04427246 324.04453288 51.55338691 324.05363321 50.0625 324.0625 C49.30775391 324.07087891 48.55300781 324.07925781 47.77539062 324.08789062 C45.85005687 324.09652441 43.92464419 324.05224333 42 324 C40.22924375 322.22924375 40.4687309 319.61951299 40.16796875 317.2109375 C40.01134766 315.97561279 39.85472656 314.74028809 39.69335938 313.4675293 C39.52466875 312.10336162 39.35605104 310.73918493 39.1875 309.375 C39.01019625 307.96454541 38.83245531 306.55414572 38.65429688 305.14379883 C38.37762888 302.9522189 38.10141298 300.76058856 37.82687378 298.56874084 C37.22825667 293.79000279 36.61423249 289.01353511 35.98828125 284.23828125 C34.33873921 271.64688557 32.75865873 259.05299868 31.30712891 246.43756104 C29.68531972 232.34910532 27.83988846 218.30433275 25.85791016 204.26220703 C23.95601255 190.78193415 22.20167024 177.28634198 20.48388672 163.78125 C19.99721922 159.97827009 19.50193104 156.17650822 19.00390625 152.375 C17.35164992 139.73773277 15.76389973 127.09854899 14.30712891 114.43756104 C12.86062407 101.87195256 11.26494422 89.33748328 9.5 76.8125 C9.39424652 76.06151031 9.28849304 75.31052063 9.17953491 74.53677368 C9.07412384 73.78834198 8.96871277 73.03991028 8.86010742 72.26879883 C8.64888011 70.7690494 8.4376982 69.26929358 8.2265625 67.76953125 C8.12295914 67.03362259 8.01935577 66.29771393 7.91261292 65.539505 C4.85197573 43.73579742 2.26936399 21.89936252 0 0 Z " fill="#8C52FE" transform="translate(2,81)"/>
<path d="M0 0 C14.52 0 29.04 0 44 0 C44 5.94 44 11.88 44 18 C49.94 18 55.88 18 62 18 C62.06855159 52.48920443 62.12158762 86.97839124 62.15319599 121.46764919 C62.15694776 125.54654814 62.16083076 129.62544695 62.16479492 133.7043457 C62.16558185 134.51632426 62.16636878 135.32830281 62.16717956 136.16488678 C62.18020608 149.28370523 62.20384462 162.40248392 62.23145839 175.52127885 C62.25958947 188.99901636 62.27619248 202.47673317 62.28226548 215.95449883 C62.28636601 224.25987336 62.29928062 232.56513551 62.3237494 240.87047542 C62.33970187 246.57860575 62.34437904 252.28667863 62.34050413 257.99482959 C62.33859723 261.27997978 62.34304036 264.56489562 62.35761642 267.85001945 C62.54982188 313.43043411 62.54982188 313.43043411 46.3359375 329.88671875 C32.96231865 341.98559466 17.33166636 344.04873549 0 345 C-1.01835937 345.06058594 -2.03671875 345.12117188 -3.0859375 345.18359375 C-21.11895862 345.66712902 -39.43505225 343.33592631 -54 332 C-57.13549236 328.98293451 -60.13323967 325.9474445 -61.91796875 321.9375 C-63.30458688 319.45460256 -64.81416687 318.62497295 -67.25 317.1875 C-78.89324064 309.67993843 -84.54720941 296.64511117 -87.5859375 283.45703125 C-89.8971824 271.85056231 -90.15311018 260.09477764 -90.1328125 248.296875 C-90.13376923 247.05246643 -90.13472595 245.80805786 -90.13571167 244.52593994 C-90.13638668 241.92435657 -90.13458025 239.32277146 -90.13037109 236.72119141 C-90.12676121 234.05217265 -90.12585407 231.38335272 -90.13037109 228.71435547 C-90.13651058 224.84600788 -90.13581426 220.97772516 -90.1328125 217.109375 C-90.13483673 215.90851257 -90.13686096 214.70765015 -90.13894653 213.47039795 C-90.13579437 212.37125061 -90.13264221 211.27210327 -90.12939453 210.13964844 C-90.12859894 209.16848083 -90.12780334 208.19731323 -90.12698364 207.19671631 C-90 205 -90 205 -89 204 C-85.97022196 203.91128727 -82.96332978 203.8848065 -79.93359375 203.90234375 C-79.02497086 203.9037587 -78.11634796 203.90517365 -77.18019104 203.90663147 C-74.26592779 203.91224807 -71.35174019 203.92480335 -68.4375 203.9375 C-66.46679798 203.94251286 -64.49609476 203.94707614 -62.52539062 203.95117188 C-57.68354086 203.96137383 -52.84185553 203.98094591 -48 204 C-48 209.94 -48 215.88 -48 222 C-42.06 222 -36.12 222 -30 222 C-30 244.77 -30 267.54 -30 291 C-13.31701237 290.54161913 -13.31701237 290.54161913 -6 285 C-2.54906719 280.42984574 -0.87944065 277.02380366 -0.8613348 271.32046223 C-0.85586036 270.3530719 -0.85038591 269.38568158 -0.84474558 268.3889764 C-0.84376747 267.32381319 -0.84278936 266.25864998 -0.84178162 265.16120911 C-0.83684364 264.03158538 -0.83190566 262.90196165 -0.82681805 261.73810691 C-0.81139632 257.93323491 -0.80306977 254.12837985 -0.79467773 250.32348633 C-0.78565291 247.60386277 -0.77513665 244.88424546 -0.76467896 242.16462708 C-0.74290876 236.29933695 -0.72476626 230.43404454 -0.70907402 224.56873512 C-0.68638034 216.08843891 -0.65823682 207.60816771 -0.62875474 199.1278927 C-0.58107268 185.36985942 -0.53781016 171.61181593 -0.49731445 157.85375977 C-0.45796265 144.48754074 -0.41653719 131.12133079 -0.37231445 117.75512695 C-0.36959018 116.93150434 -0.36686591 116.10788174 -0.36405908 115.25930087 C-0.35037966 111.12750899 -0.33665937 106.99571725 -0.32291877 102.86392558 C-0.20894434 68.57596899 -0.10240897 34.28799299 0 0 Z " fill="#8C53FE" transform="translate(435,81)"/>
<path d="M0 0 C5.94 0 11.88 0 18 0 C18.06855159 34.48920443 18.12158762 68.97839124 18.15319599 103.46764919 C18.15694776 107.54654814 18.16083076 111.62544695 18.16479492 115.7043457 C18.16558185 116.51632426 18.16636878 117.32830281 18.16717956 118.16488678 C18.18020608 131.28370523 18.20384462 144.40248392 18.23145839 157.52127885 C18.25958947 170.99901636 18.27619248 184.47673317 18.28226548 197.95449883 C18.28636601 206.25987336 18.29928062 214.56513551 18.3237494 222.87047542 C18.33970187 228.57860575 18.34437904 234.28667863 18.34050413 239.99482959 C18.33859723 243.27997978 18.34304036 246.56489562 18.35761642 249.85001945 C18.54982188 295.43043411 18.54982188 295.43043411 2.3359375 311.88671875 C-11.03768135 323.98559466 -26.66833364 326.04873549 -44 327 C-45.01835937 327.06058594 -46.03671875 327.12117188 -47.0859375 327.18359375 C-65.8467065 327.68664276 -86.04403718 325.32113293 -100.20703125 311.91015625 C-103.13207903 308.7110714 -105.21103644 306.33929957 -106 302 C-104.99582031 302.34933594 -103.99164063 302.69867188 -102.95703125 303.05859375 C-94.21959103 306.00765466 -86.28349933 307.86656161 -77 308 C-76.14954102 308.01901367 -75.29908203 308.03802734 -74.42285156 308.05761719 C-54.16168971 308.48073628 -33.82356619 308.02565354 -17 295 C-2.14023603 280.14023603 -0.50465017 258.27715697 -0.43885803 238.45088196 C-0.44356892 236.0888359 -0.44866263 233.72679059 -0.45410156 231.36474609 C-0.4453499 228.83009716 -0.43485862 226.29545373 -0.42277527 223.76081848 C-0.40079745 218.34099661 -0.39070666 212.92136922 -0.39188385 207.50150681 C-0.39356453 199.66570438 -0.37310312 191.83007761 -0.34752855 183.99432237 C-0.30660689 171.2761714 -0.28317538 158.55805238 -0.27099609 145.83984375 C-0.2591389 133.49769019 -0.23888714 121.15559662 -0.20751953 108.81347656 C-0.20558343 108.05054772 -0.20364733 107.28761888 -0.20165256 106.50157098 C-0.19188685 102.67353573 -0.18195795 98.84550093 -0.17194796 95.01746631 C-0.0893376 63.34500265 -0.03551427 31.6725526 0 0 Z " fill="#C0AAEF" transform="translate(479,99)"/>
<path d="M0 0 C0.495 1.98 0.495 1.98 1 4 C7.27 4 13.54 4 20 4 C20 8.94685055 19.99793522 13.00457066 19.30078125 17.75390625 C19.14609375 18.83502686 18.99140625 19.91614746 18.83203125 21.0300293 C18.66058594 22.19574463 18.48914063 23.36145996 18.3125 24.5625 C17.94234076 27.16384101 17.5736037 29.7653425 17.20703125 32.3671875 C17.10975739 33.05489731 17.01248352 33.74260712 16.91226196 34.45115662 C15.70562132 43.02087901 14.59912119 51.603429 13.5 60.1875 C13.39427673 61.01152313 13.28855347 61.83554626 13.17962646 62.68453979 C12.05578998 71.46062275 10.95818536 80.23907965 9.93359375 89.02734375 C9.80587082 90.12259621 9.80587082 90.12259621 9.67556763 91.23997498 C9.28423818 94.60751244 8.89811555 97.97548019 8.51953125 101.34448242 C7.52969596 109.99935477 6.36830512 118.62289406 5.16015625 127.25 C2.84596395 143.81846987 0.80922151 160.41821014 -1.21356201 177.02435303 C-2.06655278 184.0244028 -2.92328717 191.02399557 -3.78125 198.0234375 C-3.87432434 198.7829496 -3.96739868 199.5424617 -4.06329346 200.32498932 C-6.78349039 222.50282346 -9.66451587 244.65941723 -12.63809204 266.8046875 C-14.194763 278.3980073 -15.75139724 289.99124079 -17.23828125 301.59375 C-17.33172821 302.32267456 -17.42517517 303.05159912 -17.52145386 303.8026123 C-17.94900324 307.14342337 -18.37359661 310.48456784 -18.79492188 313.82617188 C-18.94123047 314.97666016 -19.08753906 316.12714844 -19.23828125 317.3125 C-19.36243408 318.29863281 -19.48658691 319.28476562 -19.61450195 320.30078125 C-19.98470705 322.89292032 -20.4764263 325.43519561 -21 328 C-30.37035938 328.02312504 -39.74070901 328.04091591 -49.11109066 328.05181217 C-53.46168459 328.05704065 -57.81225907 328.06413765 -62.1628418 328.07543945 C-66.35790258 328.08626959 -70.55294459 328.0922771 -74.74801826 328.09487724 C-76.35206968 328.09673126 -77.95612003 328.10035144 -79.5601635 328.10573006 C-81.79916515 328.11294219 -84.0380883 328.11399087 -86.27709961 328.11352539 C-87.55395126 328.115746 -88.83080292 328.11796661 -90.14634705 328.12025452 C-93 328 -93 328 -94 327 C-95.12079446 321.14696229 -95 316.13819783 -95 310 C-76.19 310 -57.38 310 -38 310 C-38 307.03 -38 304.06 -38 301 C-37.87609988 299.29022728 -37.72030441 297.58200926 -37.51269531 295.88037109 C-37.40532547 294.97887833 -37.29795563 294.07738556 -37.18733215 293.14857483 C-37.06879379 292.19977951 -36.95025543 291.25098419 -36.828125 290.2734375 C-36.7058403 289.26063217 -36.5835556 288.24782684 -36.45756531 287.20433044 C-36.06038839 283.92721036 -35.65540864 280.65111105 -35.25 277.375 C-34.97175012 275.09598832 -34.69383893 272.81693526 -34.41625977 270.5378418 C-32.51539964 254.97820887 -30.54596931 239.42827149 -28.50634766 223.88623047 C-27.94833901 219.60350068 -27.40057557 215.31954341 -26.85546875 211.03515625 C-24.60392611 193.34929904 -22.30201901 175.67113085 -19.9375 158 C-16.31760523 130.92167863 -12.84148385 103.83501435 -9.60751343 76.70773315 C-7.64498636 60.24962699 -5.59152996 43.80770534 -3.43798828 27.37353516 C-2.25397978 18.2538978 -1.13022497 9.12643638 0 0 Z " fill="#C1ABEF" transform="translate(155,95)"/>
<path d="M0 0 C9.56801791 3.28046329 14.57943328 11.32124179 19.25 19.875 C21.66950289 24.99317919 22.78621473 30.49795138 24 36 C24.24032455 36.94922081 24.24032455 36.94922081 24.48550415 37.9176178 C25.91356301 43.76703624 26.4142241 49.39907622 26.609375 55.40625 C26.64649597 56.39757935 26.68361694 57.38890869 26.72186279 58.41027832 C27.13731774 70.43714834 27.24372648 82.46675513 27.25 94.5 C27.25067474 95.67578613 27.25134949 96.85157227 27.25204468 98.06298828 C27.23932221 112.07814912 27.10528902 126.0378786 25.8125 140 C25.71163086 141.15177734 25.61076172 142.30355469 25.50683594 143.49023438 C23.77344258 159.08610234 17.43853712 174.89540472 5 185 C-0.86904762 189 -0.86904762 189 -4 189 C-3.82460693 189.56581787 -3.64921387 190.13163574 -3.46850586 190.71459961 C0.66143583 204.07302777 4.58119709 217.47530063 8.31640625 230.94921875 C9.84298466 236.45552523 11.415906 241.94752199 13 247.4375 C15.55770172 256.31533207 17.94022915 265.23575404 20.31103516 274.16503906 C22.59506331 282.68549017 25.10444877 291.12291042 27.77905273 299.52880859 C28.05563721 300.41004395 28.33222168 301.2912793 28.6171875 302.19921875 C28.86065918 302.96065186 29.10413086 303.72208496 29.35498047 304.5065918 C30.15931823 307.61586566 30.54580746 310.82065222 31 314 C15.82 314 0.64 314 -15 314 C-18 306 -18 306 -20 296 C-9.11 296 1.78 296 13 296 C10.98216305 288.81164552 8.9621592 281.62393296 6.9375 274.4375 C6.48874008 272.84446045 6.48874008 272.84446045 6.03091431 271.21923828 C1.26676533 254.31318475 1.26676533 254.31318475 -3.8125 237.5 C-6.82345252 227.84590816 -9.42809424 218.09357477 -12.00317383 208.31591797 C-15.20157645 196.17248484 -18.57508687 184.08125132 -22 172 C-21.14277344 171.46632813 -20.28554688 170.93265625 -19.40234375 170.3828125 C-6.81769005 162.29543818 1.01332941 151.59393147 4.53173828 136.7578125 C7.58850139 121.53405746 8.15397687 106.01280443 8.16796875 90.52734375 C8.17120126 89.1890103 8.17456662 87.85067717 8.17805481 86.51234436 C8.18397876 83.72835475 8.18590186 80.94439584 8.18530273 78.16040039 C8.18522175 75.35759998 8.19213172 72.55496399 8.20581055 69.75219727 C8.27011339 56.34106479 8.32106443 42.94644114 7.1484375 29.57421875 C7.07541916 28.72415756 7.00240082 27.87409637 6.9271698 26.99827576 C6.10649063 18.93395636 3.73453669 11.60334591 1 4 C0.64361909 2.67264114 0.297082 1.34187599 0 0 Z " fill="#C1ABEF" transform="translate(310,109)"/>
<path d="M0 0 C5.28 0 10.56 0 16 0 C16.56407383 4.60397692 17.1267624 9.20811615 17.6875 13.8125 C17.77547852 14.53450592 17.86345703 15.25651184 17.95410156 16.00039673 C19.07767133 25.23398069 20.1765176 34.47003242 21.23828125 43.7109375 C21.34174866 44.61115128 21.44521606 45.51136505 21.55181885 46.43885803 C21.65572937 47.34309006 21.75963989 48.24732208 21.86669922 49.17895508 C23.63199991 64.53980008 25.4595341 79.88167183 27.55078125 95.20214844 C28.97298744 105.6536435 30.25374955 116.11907969 31.49145508 126.59375 C32.3065982 133.46258826 33.1674549 140.31958576 34.140625 147.16796875 C36.30846286 162.56465579 37.55486905 177.44825347 37 193 C37.66 193 38.32 193 39 193 C38.94593994 193.88421631 38.89187988 194.76843262 38.83618164 195.67944336 C37.95821533 210.30292927 37.20241304 224.93274235 36.4375 239.5625 C36.29763595 242.23112557 36.15760169 244.89974217 36.01757812 247.56835938 C35.67782248 254.04554354 35.33872702 260.52276196 35 267 C31.7 267 28.4 267 25 267 C23.54390697 248.61896678 22.48870839 230.22385765 21.5 211.8125 C21.36951295 209.39184318 21.23897918 206.97118888 21.10839844 204.55053711 C20.91655321 200.9919213 20.72474482 197.43330351 20.53305054 193.87467957 C19.81183011 180.44318276 19.81183011 180.44318276 19.05322266 167.01376343 C18.94296462 165.0950933 18.83851809 163.17609183 18.734375 161.25708008 C18.27651716 153.50103301 17.39299254 145.86782535 16.30361938 138.17663574 C15.72085472 133.99881816 15.17993188 129.81541979 14.6328125 125.6328125 C14.51227005 124.71444107 14.3917276 123.79606964 14.26753235 122.84986877 C11.60276031 102.5405886 8.98762842 82.22829349 6.58007812 61.88671875 C6.00534405 57.03500098 5.42258466 52.18425595 4.84020996 47.33345032 C4.27993754 42.65972468 3.72309151 37.98559468 3.16699219 33.31137085 C2.89075651 30.99355053 2.6134269 28.67586031 2.33496094 26.35830688 C1.94388045 23.09994087 1.55734192 19.84106549 1.171875 16.58203125 C0.99407501 15.11237915 0.99407501 15.11237915 0.81268311 13.61303711 C0.70530823 12.6976416 0.59793335 11.78224609 0.48730469 10.83911133 C0.39278015 10.04596024 0.29825562 9.25280914 0.2008667 8.43562317 C-0.03031048 5.63246821 0 2.81267144 0 0 Z " fill="#C0AAEF" transform="translate(50,99)"/>
<path d="M0 0 C9.24 0 18.48 0 28 0 C29.02951454 4.11805816 29.14777444 7.83572213 29.14526367 12.03808594 C29.14862228 12.84511963 29.1519809 13.65215332 29.15544128 14.48364258 C29.16493641 17.15056907 29.16689386 19.81743265 29.16796875 22.484375 C29.17118299 24.34279404 29.17454719 26.20121283 29.17805481 28.05963135 C29.18404295 31.95675238 29.1858951 35.85385125 29.18530273 39.75097656 C29.18520128 44.73186924 29.19883739 49.71261882 29.21607494 54.69347763 C29.22722447 58.53347418 29.22922101 62.3734365 29.22869301 66.21344757 C29.22986929 68.04895774 29.23427124 69.8844689 29.24202538 71.71996307 C29.25188226 74.29485414 29.24892457 76.86943937 29.24291992 79.44433594 C29.24853943 80.19475159 29.25415894 80.94516724 29.25994873 81.71832275 C29.21352122 89.5992945 27.53368278 97.42475199 23 104 C16.2817794 110.60123666 9.25278797 111 0 111 C0 74.37 0 37.74 0 0 Z " fill="#FDFDFE" transform="translate(246,138)"/>
<path d="M0 0 C6.27 0 12.54 0 19 0 C23 13.5 23 13.5 23 18 C21.35 18 19.7 18 18 18 C18 56.61 18 95.22 18 135 C3.48 135 -11.04 135 -26 135 C-26 129.06 -26 123.12 -26 117 C-17.42 117 -8.84 117 0 117 C0 78.39 0 39.78 0 0 Z " fill="#C0AAEF" transform="translate(228,288)"/>
<path d="M0 0 C31.87449393 0 31.87449393 0 39.47265625 5.9296875 C39.99730469 6.57164063 40.52195312 7.21359375 41.0625 7.875 C41.61035156 8.51179687 42.15820312 9.14859375 42.72265625 9.8046875 C44 12 44 12 45 18 C36.09 18 27.18 18 18 18 C18 54.63 18 91.26 18 129 C19.65 129 21.3 129 23 129 C23 129.33 23 129.66 23 130 C15.41 130 7.82 130 0 130 C0 87.1 0 44.2 0 0 Z " fill="#C0A9EF" transform="translate(228,120)"/>
<path d="M0 0 C13.53 0 27.06 0 41 0 C41 5.94 41 11.88 41 18 C46.94 18 52.88 18 59 18 C59 40.44 59 62.88 59 86 C50.34210526 84.76315789 50.34210526 84.76315789 46 81 C36.35510179 65.76474678 39.87481444 43.19968432 39.9375 25.9375 C39.94252771 23.50976655 39.94708835 21.08203209 39.95117188 18.65429688 C39.96121079 12.76948501 39.98080342 6.88481721 40 1 C26.8 1 13.6 1 0 1 C0 0.67 0 0.34 0 0 Z " fill="#C1ABF0" transform="translate(346,285)"/>
</svg>
