<?xml version="1.0" encoding="UTF-8"?>
<svg version="1.1" xmlns="http://www.w3.org/2000/svg" width="500" height="500">
<path d="M0 0 C100.93033708 0 100.93033708 0 116 14 C118.76437207 16.91938359 121.38262296 19.94924462 124 23 C126.32915331 25.45174033 128.69058321 27.7403866 131.28125 29.9140625 C140.05530844 37.39315449 145.41395309 45.07102121 148.8125 56.0625 C149.00755127 56.67931641 149.20260254 57.29613281 149.40356445 57.93164062 C153.23426646 71.62551318 153.30868207 86.37788978 153.265625 100.49609375 C153.26697945 102.10636961 153.26892638 103.71664506 153.27142334 105.32691956 C153.2743389 108.67054206 153.27019462 112.0140563 153.26074219 115.35766602 C153.24935758 119.58440601 153.25610983 123.81089397 153.26762009 128.03762531 C153.4126567 190.64557829 153.4126567 190.64557829 135.16796875 210.01953125 C131.73174607 213.15856711 127.97162546 215.60125387 124 218 C125.22379407 224.53406265 126.70714448 230.92051749 128.53442383 237.31079102 C128.78027725 238.1822728 129.02613068 239.05375458 129.2794342 239.9516449 C130.08496138 242.80345221 130.89591585 245.65368381 131.70703125 248.50390625 C132.27543104 250.51146316 132.84351521 252.51910946 133.41130066 254.52684021 C134.60009904 258.72761739 135.79134904 262.92768816 136.98461914 267.12719727 C138.50062951 272.46254534 140.01263432 277.79901688 141.52303028 283.13595676 C142.97890846 288.27980528 144.43656388 293.42314957 145.89453125 298.56640625 C146.1660734 299.52466372 146.43761555 300.48292118 146.71738625 301.47021675 C147.50311581 304.24156119 148.29008307 307.0125513 149.07739258 309.78344727 C149.32397016 310.65358239 149.57054773 311.52371752 149.82459736 312.42022038 C151.01397247 316.60230469 152.22648314 320.77501528 153.49105835 324.93502808 C153.72568881 325.71160483 153.96031927 326.48818159 154.20205975 327.28829098 C154.63966747 328.73004779 155.08294651 330.17010157 155.53320789 331.60795689 C156.66860512 335.35316018 157 337.98785824 157 342 C141.49 342 125.98 342 110 342 C106 327 106 327 106 324 C101.38 324 96.76 324 92 324 C89.32722715 313.75077061 86.65799546 303.50062585 83.9930687 293.24935341 C82.75503718 288.48740988 81.51586608 283.72576948 80.27392578 278.96484375 C79.07156775 274.35547219 77.87241835 269.74527605 76.67533112 265.13453293 C76.22201958 263.39073384 75.76762403 261.64721612 75.31203461 259.90401077 C72.28556632 248.32010789 69.51812616 236.70516849 67 225 C65.68 225 64.36 225 63 225 C63 263.61 63 302.22 63 342 C48.15 342 33.3 342 18 342 C18 336.06 18 330.12 18 324 C12.06 324 6.12 324 0 324 C0 217.08 0 110.16 0 0 Z M63 57 C63 93.63 63 130.26 63 168 C71.42052844 168 78.24321214 166.87845913 84.49609375 160.88671875 C89.45352551 154.66739527 90.25201158 147.38881966 90.59375 139.6640625 C90.63297577 138.84622787 90.67220154 138.02839325 90.71261597 137.18577576 C91.14246369 127.22868094 91.14995247 117.26764033 91.13037109 107.30297852 C91.12501206 104.06977642 91.13035274 100.83671354 91.13671875 97.60351562 C91.14040075 84.70510863 90.78985623 71.87429679 90 59 C83.31671843 55.28568122 83.31671843 55.28568122 63 57 Z " fill="#8B52FD" transform="translate(184,81)"/>
<path d="M0 0 C15.18 0 30.36 0 46 0 C48 13 48 13 48 18 C53.28 18 58.56 18 64 18 C66.0187574 33.80937122 68.02821331 49.61990516 70.02908325 65.43154907 C70.23781281 67.08099372 70.44654288 68.7304383 70.65527344 70.37988281 C70.76179419 71.22168531 70.86831493 72.06348782 70.97806358 72.93079948 C71.69455677 78.59144877 72.41277742 84.25187691 73.13180542 89.91220474 C74.48057273 100.53007789 75.82490383 111.14849869 77.16290283 121.76773453 C77.83100586 127.06924294 78.50102228 132.37049237 79.17590332 137.67114258 C81.90184415 159.0919955 84.58812936 180.44594092 86 202 C86.06661772 201.05484181 86.13323544 200.10968363 86.20187187 199.13588428 C87.91667683 175.08546832 90.32639194 151.18964694 93.3098321 127.26551986 C93.86475839 122.80255746 94.41069987 118.33849359 94.95797729 113.87458801 C95.871812 106.43139772 96.79188835 98.98900177 97.71630859 91.54711914 C98.78452692 82.94719333 99.84366871 74.34618598 100.89801323 65.74454898 C101.92059533 57.40280885 102.94807997 49.06168082 103.97829819 40.72088051 C104.41426524 37.19115097 104.8487371 33.66124217 105.28204727 30.13118553 C105.78855229 26.00741129 106.29940982 21.8841994 106.81374359 17.7613945 C107.00188741 16.24777729 107.18855023 14.73397518 107.37366104 13.21998405 C107.62533525 11.16368832 107.88227345 9.10812005 108.14065552 7.05265808 C108.28332415 5.90091693 108.42599277 4.74917578 108.5729847 3.56253338 C109 1 109 1 110 0 C111.44289787 -0.09295815 112.89029785 -0.11746513 114.33618164 -0.11352539 C115.2570607 -0.11344986 116.17793976 -0.11337433 117.12672424 -0.11329651 C118.12775681 -0.10813522 119.12878937 -0.10297394 120.16015625 -0.09765625 C121.17975937 -0.0962413 122.19936249 -0.09482635 123.24986267 -0.09336853 C126.52077107 -0.08775097 129.79161213 -0.0751955 133.0625 -0.0625 C135.27408756 -0.05748726 137.48567618 -0.05292396 139.69726562 -0.04882812 C145.13153654 -0.03777583 150.56575684 -0.02049944 156 0 C155.34 5.94 154.68 11.88 154 18 C159.83413672 17.63195836 159.83413672 17.63195836 165.66748047 17.25170898 C166.75633545 17.18705444 166.75633545 17.18705444 167.8671875 17.12109375 C168.61081543 17.0739624 169.35444336 17.02683105 170.12060547 16.97827148 C172 17 172 17 174 18 C171.99013449 35.8299666 169.81685407 53.63505336 167.53837156 71.43255985 C167.08735169 74.95836694 166.63818704 78.48441051 166.18876648 82.01042175 C165.31381369 88.87280687 164.43722975 95.73498262 163.56005953 102.5970846 C162.53643272 110.60545646 161.51451887 118.61404665 160.49266632 126.62264506 C158.66987815 140.90801549 156.84562945 155.19319901 155.02050781 169.47827148 C153.25224715 183.31831219 151.48494974 197.15847543 149.71875 210.9987793 C149.55500211 212.28193942 149.55500211 212.28193942 149.38794617 213.59102198 C149.16800452 215.31453227 148.94806293 217.03804258 148.72812138 218.76155289 C148.61960957 219.61187369 148.51109776 220.46219449 148.39929771 221.33828259 C148.29104706 222.18655938 148.1827964 223.03483617 148.07126542 223.90881832 C146.3820789 237.14539169 144.69208902 250.38186252 143.00198864 263.61831924 C142.3910172 268.40335496 141.78015028 273.18840401 141.16935657 277.97346243 C140.20226901 285.5497262 139.23483018 293.12594494 138.26667951 300.70207294 C137.82476977 304.16021814 137.38301989 307.61838355 136.94172096 311.07660675 C136.46321125 314.825685 135.98405587 318.57468017 135.50473022 322.32365417 C135.36572434 323.41390418 135.22671845 324.50415418 135.08350027 325.62744206 C134.72622825 328.41881702 134.36372641 331.20946046 134 334 C133.86151071 335.10827996 133.86151071 335.10827996 133.72022367 336.23894942 C133.11340942 340.88659058 133.11340942 340.88659058 132 342 C129.73008113 342.09439978 127.45718033 342.11742226 125.18530273 342.11352539 C124.11706772 342.11374443 124.11706772 342.11374443 123.0272522 342.1139679 C120.66266888 342.1132687 118.29816339 342.10547606 115.93359375 342.09765625 C114.29834537 342.09579209 112.66309643 342.09436818 111.02784729 342.09336853 C106.71565215 342.08954318 102.40349048 342.07971275 98.09130859 342.06866455 C93.69434054 342.0584508 89.29736711 342.05387099 84.90039062 342.04882812 C76.26690998 342.03809049 67.63346301 342.02049356 59 342 C58.34 336.06 57.68 330.12 57 324 C51.72 324 46.44 324 41 324 C33.03853269 263.45526134 25.17311059 202.89822874 17.36311531 142.33376884 C15.56189231 128.36612705 13.75825767 114.39880417 11.95034716 100.43202677 C10.50479638 89.26410699 9.06265008 78.09575141 7.62361497 66.92698985 C6.82449276 60.7254661 6.02391952 54.52413818 5.21965981 48.32327843 C4.47285639 42.56489318 3.73021203 36.80598705 2.99081612 31.04664612 C2.71983997 28.94170199 2.44734709 26.83695246 2.17322159 24.73241615 C1.79967671 21.86282666 1.43160677 18.99258569 1.06489563 16.12211609 C0.9556705 15.29321308 0.84644537 14.46431008 0.73391038 13.6102888 C0.6361922 12.83652299 0.53847402 12.06275719 0.43779469 11.26554394 C0.35262461 10.60593739 0.26745453 9.94633084 0.17970353 9.26673621 C-0.06446085 6.18690672 0 3.08949283 0 0 Z " fill="#8B52FC" transform="translate(2,81)"/>
<path d="M0 0 C14.85 0 29.7 0 45 0 C45 5.94 45 11.88 45 18 C50.61 18 56.22 18 62 18 C63.06304867 44.89611646 63.14930729 71.77029883 63.1343255 98.68462467 C63.13174993 104.78053389 63.13415326 110.87644178 63.13571167 116.97235107 C63.13751681 127.18550899 63.13516923 137.39865961 63.13037109 147.61181641 C63.1249141 159.36194319 63.12670824 171.11205266 63.1321975 182.86217904 C63.13675521 193.03209208 63.13736675 203.20199994 63.13475883 213.37191367 C63.13321287 219.41115588 63.1329559 225.45038999 63.13629532 231.48963165 C63.13921362 237.16006204 63.13712671 242.83047033 63.13140106 248.50089836 C63.13009523 250.56262869 63.13042976 252.62436093 63.13266373 254.68609047 C63.14274055 264.94214419 63.02943195 275.17608745 62.57003784 285.42303467 C62.51507635 286.70161752 62.51507635 286.70161752 62.45900452 288.00603032 C61.60986777 304.9341484 56.82222371 320.79049745 44.3125 332.6875 C33.91582208 341.3645753 20.04994846 344.21636027 6.875 345.25 C5.87581543 345.33008301 4.87663086 345.41016602 3.84716797 345.49267578 C-16.16701521 346.92477757 -37.64701228 345.09642153 -54.3125 332.75 C-56.73855015 330.26753008 -58.416631 327.94508263 -60.3125 325.0625 C-62.72112401 321.45753955 -64.7955597 319.1890953 -68.5 316.9375 C-78.99420818 310.54816917 -83.82335683 299.15693128 -86.71801758 287.65429688 C-89.55916158 275.81511031 -90.145982 264.4117131 -90.09765625 252.2421875 C-90.09578678 250.84400483 -90.09436538 249.4458215 -90.09336853 248.04763794 C-90.08958498 244.40138886 -90.0797912 240.75518083 -90.06866455 237.10894775 C-90.05836 233.37472091 -90.05379656 229.64048712 -90.04882812 225.90625 C-90.03869755 218.60413065 -90.01911551 211.30212339 -90 204 C-76.14 204 -62.28 204 -48 204 C-48 209.94 -48 215.88 -48 222 C-42.06 222 -36.12 222 -30 222 C-29.67 244.11 -29.34 266.22 -29 289 C-21.16107283 290.30648786 -12.71558185 289.7500457 -6 285 C-2.01970742 279.82561964 -0.88187033 274.51363408 -0.8613348 268.12121868 C-0.85586036 267.16029645 -0.85038591 266.19937421 -0.84474558 265.20933312 C-0.84376747 264.16166844 -0.84278936 263.11400377 -0.84178162 262.03459167 C-0.83684364 260.91550976 -0.83190566 259.79642784 -0.82681805 258.64343435 C-0.81143593 254.88623313 -0.80308044 251.12904901 -0.79467773 247.37182617 C-0.78509977 244.68146516 -0.77513299 241.99110821 -0.76467896 239.30075073 C-0.74293371 233.50479531 -0.72478209 227.70883758 -0.70907402 221.91286278 C-0.68635762 213.53286575 -0.65821724 205.15289384 -0.62875474 196.77291814 C-0.58110054 183.17682957 -0.53783047 169.58073072 -0.49731445 155.98461914 C-0.45794848 142.77757976 -0.41651961 129.5705495 -0.37231445 116.36352539 C-0.36959018 115.54938922 -0.36686591 114.73525304 -0.36405908 113.89644607 C-0.35037942 109.81214768 -0.33665919 105.72784942 -0.32291877 101.64355123 C-0.20898812 67.76238616 -0.10244147 33.88120171 0 0 Z " fill="#8B52FC" transform="translate(435,81)"/>
<path d="M0 0 C1.58206422 0.00574487 3.16410406 0.01876032 4.74609375 0.03515625 C6.20779645 0.04651722 7.66950227 0.05748046 9.13121033 0.06813049 C9.89029662 0.07368234 10.64938292 0.07923418 11.43147182 0.08495426 C12.00967206 0.08914592 12.5878723 0.09333757 13.18359375 0.09765625 C14.27221285 26.99177767 14.33290014 53.86956921 14.31791925 80.78228092 C14.31534368 86.87819014 14.31774701 92.97409803 14.31930542 99.07000732 C14.32111056 109.28316524 14.31876298 119.49631586 14.31396484 129.70947266 C14.30850785 141.45959944 14.31030199 153.20970891 14.31579125 164.95983529 C14.32034896 175.12974833 14.3209605 185.29965619 14.31835258 195.46956992 C14.31680662 201.50881213 14.31654965 207.54804624 14.31988907 213.5872879 C14.32280737 219.25771829 14.32072046 224.92812658 14.31499481 230.59855461 C14.31368898 232.66028494 14.31402351 234.72201718 14.31625748 236.78374672 C14.3263343 247.03980044 14.2130257 257.2737437 13.75363159 267.52069092 C13.7169906 268.37307948 13.6803496 269.22546805 13.64259827 270.10368657 C12.79346152 287.03180465 8.00581746 302.8881537 -4.50390625 314.78515625 C-14.90058417 323.46223155 -28.76645779 326.31401652 -41.94140625 327.34765625 C-42.94059082 327.42773926 -43.93977539 327.50782227 -44.96923828 327.59033203 C-64.95337397 329.02028379 -86.86483412 327.29353449 -103.31640625 314.59765625 C-105.97548776 311.93857474 -107.96618985 309.37111604 -109.81640625 306.09765625 C-109.81640625 305.10765625 -109.81640625 304.11765625 -109.81640625 303.09765625 C-107.8785454 303.57536148 -105.94112951 304.05487196 -104.00390625 304.53515625 C-102.92496094 304.80199219 -101.84601563 305.06882812 -100.734375 305.34375 C-98.74232195 305.85843037 -96.76829101 306.447028 -94.81640625 307.09765625 C-71.08743223 310.28139677 -43.11268058 310.31224863 -22.84375 295.87109375 C-11.65567284 286.08422085 -6.60910877 268.95492956 -5.64429426 254.52319884 C-5.35024543 247.02634736 -5.38945094 239.52547632 -5.39990234 232.02416992 C-5.39251331 229.50158792 -5.38380554 226.97900948 -5.37388611 224.45643616 C-5.35546122 219.05021406 -5.34593096 213.64409559 -5.34458542 208.23784447 C-5.34253651 200.42049769 -5.3230102 192.60326795 -5.2991875 184.78596071 C-5.26089618 172.09779799 -5.23501653 159.40964325 -5.21777344 146.72143555 C-5.20099839 134.4072966 -5.1807926 122.09317493 -5.15429688 109.77905273 C-5.15184674 108.63841173 -5.15184674 108.63841173 -5.14934711 107.47472747 C-5.13139234 99.17873409 -5.11205345 90.88274482 -5.09104347 82.58675861 C-5.08920205 81.85863149 -5.08736063 81.13050436 -5.08546341 80.38031277 C-5.0780855 77.4705639 -5.07069187 74.56081508 -5.06311961 71.6510667 C-5.04097332 63.12811021 -5.02317362 54.60517079 -5.0131668 46.08219097 C-5.00605228 40.11926085 -4.99436509 34.15634582 -4.98103523 28.19342613 C-4.97645813 25.74113731 -4.97362534 23.28884455 -4.97261238 20.83655167 C-4.97105265 17.50515872 -4.96350621 14.17383265 -4.95443726 10.842453 C-4.95603963 9.36702263 -4.95603963 9.36702263 -4.95767438 7.86178559 C-4.95223786 6.53412579 -4.95223786 6.53412579 -4.94669151 5.17964458 C-4.94565969 4.40994609 -4.94462786 3.64024759 -4.94356477 2.84722489 C-4.69348326 -0.59363593 -3.57473809 0.09147232 0 0 Z " fill="#C1ADEE" transform="translate(483.81640625,98.90234375)"/>
<path d="M0 0 C-2.00986551 17.8299666 -4.18314593 35.63505336 -6.46162844 53.43255985 C-6.91264831 56.95836694 -7.36181296 60.48441051 -7.81123352 64.01042175 C-8.68618631 70.87280687 -9.56277025 77.73498262 -10.43994047 84.5970846 C-11.46356728 92.60545646 -12.48548113 100.61404665 -13.50733368 108.62264506 C-15.33012185 122.90801549 -17.15437055 137.19319901 -18.97949219 151.47827148 C-20.74775285 165.31831219 -22.51505026 179.15847543 -24.28125 192.9987793 C-24.39041526 193.85421938 -24.49958053 194.70965947 -24.61205383 195.59102198 C-24.83199548 197.31453227 -25.05193707 199.03804258 -25.27187862 200.76155289 C-25.38039043 201.61187369 -25.48890224 202.46219449 -25.60070229 203.33828259 C-25.70895294 204.18655938 -25.8172036 205.03483617 -25.92873458 205.90881832 C-27.6179211 219.14539169 -29.30791098 232.38186252 -30.99801136 245.61831924 C-31.6089828 250.40335496 -32.21984972 255.18840401 -32.83064343 259.97346243 C-33.79773099 267.5497262 -34.76516982 275.12594494 -35.73332049 282.70207294 C-36.17523023 286.16021814 -36.61698011 289.61838355 -37.05827904 293.07660675 C-37.53678875 296.825685 -38.01594413 300.57468017 -38.49526978 304.32365417 C-38.63427566 305.41390418 -38.77328155 306.50415418 -38.91649973 307.62744206 C-39.27377175 310.41881702 -39.63627359 313.20946046 -40 316 C-40.13848929 317.10827996 -40.13848929 317.10827996 -40.27977633 318.23894942 C-40.88659058 322.88659058 -40.88659058 322.88659058 -42 324 C-44.26991887 324.09439978 -46.54281967 324.11742226 -48.81469727 324.11352539 C-49.88293228 324.11374443 -49.88293228 324.11374443 -50.9727478 324.1139679 C-53.33733112 324.1132687 -55.70183661 324.10547606 -58.06640625 324.09765625 C-59.70165463 324.09579209 -61.33690357 324.09436818 -62.97215271 324.09336853 C-67.28434785 324.08954318 -71.59650952 324.07971275 -75.90869141 324.06866455 C-80.30565946 324.0584508 -84.70263289 324.05387099 -89.09960938 324.04882812 C-97.73309002 324.03809049 -106.36653699 324.02049356 -115 324 C-115.66 318.06 -116.32 312.12 -117 306 C-98.19 306 -79.38 306 -60 306 C-58.515 293.625 -58.515 293.625 -57 281 C-56.41513047 276.18457924 -55.82915499 271.36936548 -55.23828125 266.5546875 C-55.08678619 265.31912109 -54.93529114 264.08355469 -54.77920532 262.81054688 C-54.29096411 258.83194987 -53.80192706 254.85345125 -53.3125 250.875 C-53.22746845 250.18355141 -53.1424369 249.49210281 -53.05482864 248.77970123 C-49.28334001 218.11576562 -45.40027219 187.46660769 -41.48754883 156.82037354 C-40.20138345 146.74213753 -38.91892532 136.66342883 -37.63601685 126.58477783 C-37.20619363 123.20930424 -36.77588907 119.83389235 -36.34545898 116.45849609 C-36.07793193 114.35905334 -35.81043458 112.2596068 -35.54296875 110.16015625 C-35.41390137 109.14800049 -35.28483398 108.13584473 -35.15185547 107.09301758 C-34.49892523 101.96238005 -33.85371037 96.83092007 -33.22094727 91.69775391 C-31.88555378 80.8732965 -30.47428595 70.07076892 -28.86514282 59.28369141 C-27.35853446 49.15962352 -25.95885727 39.03657614 -24.859375 28.859375 C-24.72492226 27.61513763 -24.72492226 27.61513763 -24.5877533 26.34576416 C-24.15777652 22.32731458 -23.74272924 18.30779834 -23.34399414 14.28613281 C-23.19419981 12.83658579 -23.0443802 11.38704138 -22.89453125 9.9375 C-22.76925049 8.66777344 -22.64396973 7.39804688 -22.51489258 6.08984375 C-22 3 -22 3 -20 0 C-17.30539203 -0.41455507 -14.8321752 -0.64937933 -12.125 -0.75 C-11.04412109 -0.81380859 -11.04412109 -0.81380859 -9.94140625 -0.87890625 C-6.41002077 -1.0545 -3.39155198 -0.96471648 0 0 Z " fill="#BFAAED" transform="translate(176,99)"/>
<path d="M0 0 C7.49542997 1.37671163 11.05771386 5.15848216 15.59765625 11.0859375 C18.93085576 16.08147435 20.98755505 21.30138404 22.75 27 C23.04801514 27.93078369 23.04801514 27.93078369 23.35205078 28.88037109 C27.26254231 42.56876689 27.30871967 57.36556218 27.265625 71.49609375 C27.26697945 73.10636961 27.26892638 74.71664506 27.27142334 76.32691956 C27.2743389 79.67054206 27.27019462 83.0140563 27.26074219 86.35766602 C27.24935758 90.58440601 27.25610983 94.81089397 27.26762009 99.03762531 C27.4126567 161.64557829 27.4126567 161.64557829 9.16796875 181.01953125 C5.73174607 184.15856711 1.97162546 186.60125387 -2 189 C-0.77620593 195.53406265 0.70714448 201.92051749 2.53442383 208.31079102 C2.78027725 209.1822728 3.02613068 210.05375458 3.2794342 210.9516449 C4.08496138 213.80345221 4.89591585 216.65368381 5.70703125 219.50390625 C6.27543104 221.51146316 6.84351521 223.51910946 7.41130066 225.52684021 C8.60009904 229.72761739 9.79134904 233.92768816 10.98461914 238.12719727 C12.50062951 243.46254534 14.01263432 248.79901688 15.52303028 254.13595676 C16.97890846 259.27980528 18.43656388 264.42314957 19.89453125 269.56640625 C20.1660734 270.52466372 20.43761555 271.48292118 20.71738625 272.47021675 C21.50311581 275.24156119 22.29008307 278.0125513 23.07739258 280.78344727 C23.44725894 282.08864995 23.44725894 282.08864995 23.82459736 283.42022038 C25.01397247 287.60230469 26.22648314 291.77501528 27.49105835 295.93502808 C27.72568881 296.71160483 27.96031927 297.48818159 28.20205975 298.28829098 C28.63966747 299.73004779 29.08294651 301.17010157 29.53320789 302.60795689 C30.66860512 306.35316018 31 308.98785824 31 313 C15.49 313 -0.02 313 -16 313 C-19 302 -19 302 -19 295 C-8.44 295 2.12 295 13 295 C11.6490625 290.28332031 10.298125 285.56664062 8.90625 280.70703125 C8.03109799 277.64913186 7.15602989 274.59120893 6.28125 271.53320312 C4.90443302 266.72023319 3.52737003 261.90733502 2.1484375 257.0949707 C0.81620053 252.44525493 -0.51449981 247.79510176 -1.84375 243.14453125 C-2.06302217 242.37746857 -2.28229435 241.61040588 -2.50821114 240.82009888 C-5.85675887 229.09725626 -9.13904784 217.35778864 -12.33276367 205.5917511 C-15.14031561 195.30241804 -18.30753818 185.13582273 -21.59790039 174.99169922 C-22 173 -22 173 -21 170 C-19.0390625 168.4296875 -19.0390625 168.4296875 -16.625 166.875 C-15.83351563 166.35679687 -15.04203125 165.83859375 -14.2265625 165.3046875 C-12 164 -12 164 -9 163 C-7.93525587 161.14192884 -7.93525587 161.14192884 -7 159 C-6.09283628 157.74308641 -5.17527127 156.49364418 -4.25 155.25 C3.54856888 143.55214668 6.09455459 130.78630165 7 117 C7.08540039 115.89172852 7.17080078 114.78345703 7.25878906 113.64160156 C8.1268716 101.18477047 8.15225945 88.74579185 8.13037109 76.26269531 C8.12502012 72.63862913 8.13034181 69.0146874 8.13671875 65.390625 C8.64193227 40.6653618 8.64193227 40.6653618 5.125 16.3125 C4.88330078 15.25385742 4.88330078 15.25385742 4.63671875 14.17382812 C3.4751312 9.27985266 1.8384066 4.68005793 0 0 Z " fill="#BFAAED" transform="translate(310,110)"/>
<path d="M0 0 C1.28132813 0.00902344 2.56265625 0.01804687 3.8828125 0.02734375 C4.87023438 0.03894531 5.85765625 0.05054687 6.875 0.0625 C8.89606331 15.88687801 10.90628419 31.71261019 12.90861511 47.53936768 C14.06293751 56.66151102 15.22090228 65.7831789 16.38330078 74.90429688 C17.589867 84.3728558 18.79059476 93.84214003 19.98608971 103.31210327 C20.64561045 108.53495139 21.30747455 113.75747571 21.97546387 118.97924805 C31.03819657 189.8770783 31.03819657 189.8770783 29.08917236 210.5401001 C28.63174612 215.92740541 28.40472 221.33176936 28.12109375 226.73046875 C27.98852788 229.12960706 27.85505968 231.52869568 27.72070312 233.92773438 C27.65375244 235.12873779 27.58680176 236.32974121 27.51782227 237.56713867 C27.45006592 238.78248291 27.38230957 239.99782715 27.3125 241.25 C27.17249992 243.7649725 27.03252579 246.27994645 26.89257812 248.79492188 C26.55368395 254.88413124 26.21444083 260.97332108 25.875 267.0625 C22.575 267.0625 19.275 267.0625 15.875 267.0625 C15.7939653 265.66840408 15.7129306 264.27430817 15.62944031 262.83796692 C14.85961698 249.6141412 14.08053114 236.39088746 13.29237652 223.16814137 C12.88753924 216.37237247 12.48586153 209.57644627 12.09204102 202.7800293 C11.7110288 196.20481626 11.32065732 189.63019542 10.92490578 183.05585289 C10.77638884 180.56420373 10.63085929 178.0723744 10.48856163 175.58036232 C9.67399015 161.35350883 8.43749433 147.36226305 6.20701599 133.28559208 C5.36355394 127.63799119 4.82062647 121.95001328 4.22589111 116.2718811 C2.84132812 103.11292108 1.25962451 89.98875262 -0.5 76.875 C-2.41491476 62.5715962 -4.2577148 48.26048743 -6.02740479 33.93832397 C-6.29890192 31.74478954 -6.57195117 29.5514466 -6.84661865 27.35830688 C-7.23144792 24.28235132 -7.61063211 21.20575056 -7.98828125 18.12890625 C-8.16133034 16.75638702 -8.16133034 16.75638702 -8.33787537 15.35614014 C-8.92065028 10.54915555 -9.24482816 5.90462824 -9.125 1.0625 C-6.12186252 -0.43906874 -3.33432478 -0.03031204 0 0 Z " fill="#BFA9EE" transform="translate(59.125,98.9375)"/>
<path d="M0 0 C6.27 0 12.54 0 19 0 C23.41964286 14.46428571 23.41964286 14.46428571 22 18 C21.01 18 20.02 18 19 18 C19 56.61 19 95.22 19 135 C4.15 135 -10.7 135 -26 135 C-26 118 -26 118 -25 117 C-16.75 117 -8.5 117 0 117 C0 78.39 0 39.78 0 0 Z " fill="#BFA9EF" transform="translate(228,288)"/>
<path d="M0 0 C31.44827586 0 31.44827586 0 38 5 C41.51167446 8.52918905 44.76623601 12.06494405 46 17 C45.505 18.485 45.505 18.485 45 20 C44.01 19.67 43.02 19.34 42 19 C34.41 18.67 26.82 18.34 19 18 C19.33 54.96 19.66 91.92 20 130 C13.4 130 6.8 130 0 130 C0 87.1 0 44.2 0 0 Z " fill="#BEA8ED" transform="translate(228,120)"/>
<path d="M0 0 C0 22.11 0 44.22 0 67 C-5.71808511 68.14361702 -5.71808511 68.14361702 -9.0625 66.0625 C-14.3120202 62.52650243 -16.06198663 57.81404011 -18 52 C-18.08754798 50.32779029 -18.11765995 48.65227801 -18.11352539 46.9777832 C-18.11344986 45.95695145 -18.11337433 44.93611969 -18.11329651 43.88435364 C-18.10813522 42.78427475 -18.10297394 41.68419586 -18.09765625 40.55078125 C-18.0962413 39.4230278 -18.09482635 38.29527435 -18.09336853 37.13334656 C-18.0877647 33.52637088 -18.07521153 29.91945696 -18.0625 26.3125 C-18.05748549 23.86914152 -18.0529225 21.42578207 -18.04882812 18.98242188 C-18.03779403 12.98826013 -18.02105215 6.99413448 -18 1 C-12.29912287 -0.90029238 -6.00925213 0 0 0 Z " fill="#BFABEC" transform="translate(405,303)"/>
<path d="M0 0 C0.33 0 0.66 0 1 0 C1 106.26 1 212.52 1 322 C14.6707311 322 28.34632534 321.68268373 42 321 C42.33 283.38 42.66 245.76 43 207 C43.33 207 43.66 207 44 207 C44 245.61 44 284.22 44 324 C18 325 18 325 0 324 C0 217.08 0 110.16 0 0 Z " fill="#8B60E4" transform="translate(184,81)"/>
<path d="M0 0 C0.99 0.33 1.98 0.66 3 1 C2.91811788 32.90787005 2.82611726 64.81569067 2.71994839 96.72348852 C2.7074292 100.48867309 2.69499647 104.25385794 2.68261719 108.01904297 C2.68015119 108.76863803 2.6776852 109.5182331 2.67514448 110.29054317 C2.63539768 122.43519869 2.60265885 134.57986354 2.57250018 146.72454622 C2.54140956 159.18185032 2.50281044 171.63911475 2.45720994 184.09637427 C2.4292992 191.78601011 2.4072774 199.47561686 2.39273749 207.16528979 C2.38097028 213.05716685 2.35876725 218.94897522 2.33261681 224.84080696 C2.32352135 227.26117728 2.31784624 229.68156316 2.31578636 232.10194969 C2.31247774 235.39809417 2.29703812 238.69396267 2.2784729 241.99005127 C2.28040763 242.95502793 2.28234237 243.92000458 2.28433573 244.91422296 C2.27687024 245.79651944 2.26940475 246.67881592 2.26171303 247.58784866 C2.25943471 248.34880821 2.25715638 249.10976775 2.25480902 249.89378667 C2 252 2 252 0 256 C0 171.52 0 87.04 0 0 Z " fill="#C09FFC" transform="translate(479,100)"/>
<path d="M0 0 C0.33 0 0.66 0 1 0 C1 37.95 1 75.9 1 115 C-13.85 115 -28.7 115 -44 115 C-44 109.39 -44 103.78 -44 98 C-43.67 98 -43.34 98 -43 98 C-43 102.95 -43 107.9 -43 113 C-40.525 112.505 -40.525 112.505 -38 112 C-35.27574169 111.91819308 -32.57868694 111.88334434 -29.85546875 111.90234375 C-29.08568192 111.9037587 -28.31589508 111.90517365 -27.52278137 111.90663147 C-25.07764712 111.91220394 -22.63260632 111.92475129 -20.1875 111.9375 C-18.52408987 111.94251856 -16.8606783 111.94708085 -15.19726562 111.95117188 C-11.13147472 111.96216434 -7.06575317 111.9794099 -3 112 C-1.82629023 109.65258046 -1.84855227 108.20192611 -1.80381775 105.58346558 C-1.78561478 104.6551593 -1.7674118 103.72685303 -1.74865723 102.77041626 C-1.73355103 101.74902557 -1.71844482 100.72763489 -1.70288086 99.67529297 C-1.68322769 98.60210815 -1.66357452 97.52892334 -1.64332581 96.42321777 C-1.57926676 92.8629385 -1.52204022 89.3025831 -1.46484375 85.7421875 C-1.42185163 83.27881142 -1.37843516 80.8154427 -1.33460999 78.3520813 C-1.22022811 71.85840504 -1.11163162 65.36464426 -1.00421143 58.87084961 C-0.89364969 52.24847469 -0.77765574 45.62619593 -0.66210938 39.00390625 C-0.43606858 26.00269239 -0.21595092 13.00138517 0 0 Z " fill="#B9A9D9" transform="translate(246,308)"/>
<path d="M0 0 C13.86 0 27.72 0 42 0 C42 5.94 42 11.88 42 18 C42.99 18.33 43.98 18.66 45 19 C44.01 19 43.02 19 42 19 C42.09265394 26.11693038 42.20000807 33.23353238 42.31738281 40.35009766 C42.35556737 42.76899235 42.39043826 45.18794179 42.421875 47.60693359 C42.46775422 51.09232086 42.52571129 54.57733466 42.5859375 58.0625 C42.59748871 59.13677246 42.60903992 60.21104492 42.62094116 61.31787109 C42.73556953 67.20487732 43.30954684 72.3532933 45 78 C42 76 42 76 41.27763367 74.04428101 C40.01078238 67.27055726 39.7233178 60.73357732 39.76953125 53.8515625 C39.76998947 52.71778168 39.77044769 51.58400085 39.7709198 50.41586304 C39.77392462 48.03081203 39.78175738 45.64576268 39.79418945 43.26074219 C39.81241184 39.64250601 39.81469893 36.02452727 39.81445312 32.40625 C39.81937104 30.07551866 39.82520055 27.74478902 39.83203125 25.4140625 C39.83314407 24.34805817 39.8342569 23.28205383 39.83540344 22.18374634 C39.84178329 21.15582977 39.84816315 20.12791321 39.85473633 19.06884766 C39.86045403 17.74175278 39.86045403 17.74175278 39.86628723 16.3878479 C40.06912234 11.24866412 40.57288173 6.1254192 41 1 C27.8 1 14.6 1 1 1 C1 21.46 1 41.92 1 63 C0.67 63 0.34 63 0 63 C0 42.21 0 21.42 0 0 Z " fill="#8E68DE" transform="translate(345,285)"/>
<path d="M0 0 C0.33 0 0.66 0 1 0 C1.1418879 9.34883581 1.00745053 18.69662965 0 28 C-0.33 28.33 -0.66 28.66 -1 29 C-1.38365233 31.24196833 -1.70541706 33.49459937 -2 35.75 C-2.08757568 36.41725098 -2.17515137 37.08450195 -2.26538086 37.77197266 C-2.9750964 43.36371098 -3.41848297 48.95904092 -3.75390625 54.5859375 C-4 57 -4 57 -5 58 C-5.41196763 60.58607417 -5.76133007 63.15045736 -6.0625 65.75 C-6.15337891 66.5126416 -6.24425781 67.2752832 -6.33789062 68.06103516 C-6.98557207 73.8889507 -7.11253936 79.59668451 -6.875 85.4609375 C-7 88 -7 88 -9 91 C-9.5185797 93.67393383 -9.5185797 93.67393383 -9.78125 96.69140625 C-9.90113281 97.80064453 -10.02101562 98.90988281 -10.14453125 100.05273438 C-10.38190203 102.39644475 -10.61887991 104.74019494 -10.85546875 107.08398438 C-10.97535156 108.19193359 -11.09523438 109.29988281 -11.21875 110.44140625 C-11.32123047 111.45920166 -11.42371094 112.47699707 -11.52929688 113.52563477 C-12 116 -12 116 -14 118 C-13.45382871 107.34648729 -12.48068954 96.82954364 -11.07421875 86.25 C-10.88296338 84.78017369 -10.69220591 83.31028252 -10.50190735 81.84033203 C-10.00335443 77.99869547 -9.4986844 74.15788922 -8.99243164 70.31726074 C-8.49230065 66.51662559 -7.99712088 62.71534697 -7.50195312 58.9140625 C-7.30526759 57.40429684 -7.1085818 55.89453122 -6.91189575 54.38476562 C-6.81481449 53.6394458 -6.71773323 52.89412598 -6.61771011 52.1262207 C-6.32558869 49.8855081 -6.03271351 47.64489502 -5.73971558 45.40429688 C-3.76387231 30.27734293 -1.87345431 15.13993987 0 0 Z " fill="#BD9CFB" transform="translate(139,220)"/>
<path d="M0 0 C8.13410781 12.20116172 4.15512107 37.93244609 4.13037109 51.99804688 C4.12499801 55.62634436 4.13035676 59.25451868 4.13671875 62.8828125 C4.13989437 75.29122268 3.96229455 87.62607577 3 100 C2.67 100 2.34 100 2 100 C1.98969254 98.91227798 1.97938507 97.82455597 1.96876526 96.70387268 C1.8712064 86.47640569 1.76848941 76.24900194 1.66066074 66.02163792 C1.60538625 60.76306363 1.55195916 55.50448382 1.50268555 50.24584961 C1.45510858 45.17541936 1.40276846 40.10505903 1.34705925 35.03471184 C1.32660538 33.09575061 1.30789743 31.15677018 1.29092598 29.21777534 C1.26694883 26.51173046 1.23688555 23.80581901 1.20532227 21.09985352 C1.1995668 20.28993454 1.19381134 19.48001556 1.18788147 18.64555359 C1.47650331 15.02335774 1.47650331 15.02335774 0 12 C-0.07244053 9.98035801 -0.08377188 7.95832876 -0.0625 5.9375 C-0.05347656 4.83277344 -0.04445313 3.72804687 -0.03515625 2.58984375 C-0.02355469 1.73519531 -0.01195312 0.88054687 0 0 Z " fill="#8F62EE" transform="translate(315,127)"/>
<path d="M0 0 C1.485 0.99 1.485 0.99 3 2 C5.82236866 2.31577911 5.82236866 2.31577911 9.06030273 2.28710938 C10.30847275 2.30052368 11.55664276 2.31393799 12.84263611 2.32775879 C13.50911604 2.33032181 14.17559597 2.33288483 14.86227226 2.33552551 C16.95150401 2.34382112 19.04029999 2.36433156 21.12940979 2.38806152 C25.56537514 2.43627219 30.00138398 2.4692136 34.4375 2.5 C39.57508529 2.53568539 44.71245747 2.57763791 49.84984016 2.63594055 C51.90606146 2.65598165 53.96211885 2.6643231 56.01841736 2.67224121 C57.26973953 2.68565552 58.52106171 2.69906982 59.81030273 2.71289062 C61.46218849 2.72382751 61.46218849 2.72382751 63.14744568 2.73498535 C66 3 66 3 70 5 C46.9 5 23.8 5 0 5 C0 3.35 0 1.7 0 0 Z " fill="#BCAFDE" transform="translate(61,418)"/>
<path d="M0 0 C0.99 0.495 0.99 0.495 2 1 C2.73696984 16.01184052 3.14090482 30.9701524 3 46 C5.31 46 7.62 46 10 46 C10 44.68 10 43.36 10 42 C9.34 41.67 8.68 41.34 8 41 C8.66 41 9.32 41 10 41 C10.04898438 39.83726562 10.09796875 38.67453125 10.1484375 37.4765625 C10.65971847 26.25081621 11.62761957 15.15225647 13 4 C13.33 4 13.66 4 14 4 C13.42747036 18.33901412 12.79415224 32.67146594 12 47 C8.7 47 5.4 47 2 47 C1.70941537 42.55699187 1.42490354 38.11364433 1.14550781 33.66992188 C1.05008542 32.16493787 0.95313349 30.66004989 0.85449219 29.15527344 C0.21740832 19.41699151 -0.14001027 9.76377195 0 0 Z " fill="#BE9DFC" transform="translate(73,319)"/>
<path d="M0 0 C0.66 0 1.32 0 2 0 C2.07347656 1.21236328 2.07347656 1.21236328 2.1484375 2.44921875 C2.22320312 3.51785156 2.29796875 4.58648437 2.375 5.6875 C2.44460937 6.74324219 2.51421875 7.79898438 2.5859375 8.88671875 C2.84033931 11.92784336 2.84033931 11.92784336 4.00219727 14.24194336 C5.24385513 17.67404732 5.3069381 20.59472149 5.37890625 24.2421875 C5.39590073 24.92878448 5.4128952 25.61538147 5.43040466 26.32278442 C5.48324713 28.50676388 5.52365889 30.69073041 5.5625 32.875 C5.60671712 35.05202864 5.65370472 37.22892585 5.70530701 39.40579224 C5.75143569 41.38612504 5.78916368 43.3666483 5.82641602 45.34716797 C5.94118527 48.9905127 5.94118527 48.9905127 6.50927734 52.5300293 C7.01146587 56.08107685 7.11358679 59.44297174 7.09765625 63.02734375 C7.09443359 64.31318359 7.09121094 65.59902344 7.08789062 66.92382812 C7.07953802 68.26171945 7.07107311 69.59961007 7.0625 70.9375 C7.05747659 72.30273274 7.05291517 73.66796726 7.04882812 75.03320312 C7.03708851 78.35551457 7.02066679 81.67773408 7 85 C6.67 85 6.34 85 6 85 C5.95432892 84.20423553 5.90865784 83.40847107 5.86160278 82.58859253 C5.42664697 75.02849877 4.98593498 67.46877152 4.53901863 59.90937614 C4.30954206 56.02455399 4.08216542 52.13963436 3.85986328 48.25439453 C3.64458664 44.49337724 3.42343458 40.73274439 3.19848251 36.97229385 C3.11434519 35.54936665 3.03220039 34.12631995 2.9522438 32.7031517 C2.4840229 24.39616037 1.71659909 16.21691241 0.39987183 7.99514771 C0.03770175 5.2823963 -0.07568733 2.73151639 0 0 Z " fill="#C09FFC" transform="translate(66,232)"/>
<path d="M0 0 C18.15 0 36.3 0 55 0 C55 0.66 55 1.32 55 2 C37.84 2 20.68 2 3 2 C2.67 3.32 2.34 4.64 2 6 C1.67 6 1.34 6 1 6 C0.67 4.02 0.34 2.04 0 0 Z " fill="#C4A6FA" transform="translate(60,405)"/>
<path d="M0 0 C0.33 0 0.66 0 1 0 C1.00808685 0.5732753 1.01617371 1.1465506 1.02450562 1.73719788 C1.11080861 7.72369934 1.21032246 13.70987946 1.31738281 19.69604492 C1.35557883 21.9277607 1.39044781 24.15953607 1.421875 26.39135742 C1.46772929 29.60617314 1.52569037 32.82058192 1.5859375 36.03515625 C1.59748871 37.02709488 1.60903992 38.01903351 1.62094116 39.04103088 C1.77164911 46.17414573 2.1721856 52.36754986 7 58 C9 61 9 61 9 63 C10.98 63.33 12.96 63.66 15 64 C15 64.66 15 65.32 15 66 C15.66 66.33 16.32 66.66 17 67 C11.97332059 66.52126863 8.86489534 65.27675909 5 62 C1.78044108 56.93047231 -0.12841249 52.00705704 -0.11352539 45.9777832 C-0.11344986 44.95695145 -0.11337433 43.93611969 -0.11329651 42.88435364 C-0.10813522 41.78427475 -0.10297394 40.68419586 -0.09765625 39.55078125 C-0.0962413 38.4230278 -0.09482635 37.29527435 -0.09336853 36.13334656 C-0.0877647 32.52637088 -0.07521153 28.91945696 -0.0625 25.3125 C-0.05748549 22.86914152 -0.0529225 20.42578207 -0.04882812 17.98242188 C-0.03779403 11.98826013 -0.02105215 5.99413448 0 0 Z " fill="#C1A1FC" transform="translate(387,304)"/>
<path d="M0 0 C0.99 0.33 1.98 0.66 3 1 C3.10812012 1.72123047 3.21624023 2.44246094 3.32763672 3.18554688 C4.51773851 10.75249911 6.18062536 18.09463055 8.125 25.5 C8.67366991 27.59260152 9.21812705 29.68631339 9.7578125 31.78125 C9.9964502 32.68939453 10.23508789 33.59753906 10.48095703 34.53320312 C11 37 11 37 11 41 C11.66 41.33 12.32 41.66 13 42 C13.6127635 44.50969167 14.12207123 46.95996108 14.5625 49.5 C15.02094759 54.12540623 15.02094759 54.12540623 17 58 C17.23427778 60.01594582 17.41336124 62.038474 17.5625 64.0625 C17.64628906 65.16722656 17.73007812 66.27195312 17.81640625 67.41015625 C17.87699219 68.26480469 17.93757813 69.11945313 18 70 C16.17337422 66.70406126 15.2304905 63.45610562 14.30419922 59.81030273 C13.98401825 58.55898056 13.66383728 57.30765839 13.33395386 56.01841736 C12.9906604 54.65686108 12.64757663 53.29525191 12.3046875 51.93359375 C11.94912267 50.5339456 11.59325271 49.13437494 11.23709106 47.73487854 C10.49284383 44.80616701 9.75183215 41.87666164 9.01318359 38.9465332 C8.06603655 35.19013457 7.11158139 31.43563983 6.15479851 27.68168545 C5.41950897 24.79392036 4.68772295 21.9052766 3.95703506 19.01634407 C3.60636966 17.63139696 3.25469773 16.24670429 2.90200424 14.86227226 C2.4101698 12.92917045 1.92346978 10.99476449 1.43701172 9.06030273 C1.15880585 7.95984116 0.88059998 6.85937958 0.59396362 5.72557068 C0 3 0 3 0 0 Z " fill="#845EDB" transform="translate(258,332)"/>
<path d="M0 0 C3.83326795 -0.05859888 7.66641888 -0.09379643 11.5 -0.125 C12.57765625 -0.14175781 13.6553125 -0.15851563 14.765625 -0.17578125 C23.55906838 -0.22939981 31.92189944 0.12006922 38.6015625 6.5390625 C42.00122861 10.19652319 43.74806589 12.83535078 44 18 C43.01 17.67 42.02 17.34 41 17 C40.9175 16.278125 40.835 15.55625 40.75 14.8125 C39.82300796 11.33627983 38.53791915 9.53791915 36 7 C33.45948786 6.02389158 33.45948786 6.02389158 31 6 C30.01 6.495 30.01 6.495 29 7 C28.01 6.67 27.02 6.34 26 6 C25.67 5.01 25.34 4.02 25 3 C22.44276771 1.72138385 20.63262898 1.88663391 17.7734375 1.90234375 C16.2265625 1.90717773 16.2265625 1.90717773 14.6484375 1.91210938 C13.56820312 1.92048828 12.48796875 1.92886719 11.375 1.9375 C10.28703125 1.94201172 9.1990625 1.94652344 8.078125 1.95117188 C5.38536211 1.96298224 2.69270812 1.97945222 0 2 C0 1.34 0 0.68 0 0 Z " fill="#C1A1FB" transform="translate(229,120)"/>
<path d="M0 0 C0.66 0 1.32 0 2 0 C2 4.62 2 9.24 2 14 C2.66 14 3.32 14 4 14 C5.6000144 24.74295385 6.25991325 35.14140199 6 46 C5.67 46 5.34 46 5 46 C4.2811533 40.73559503 3.56932173 35.47030481 2.86376953 30.20410156 C2.62314892 28.41543451 2.38066562 26.62701695 2.13623047 24.83886719 C1.78374458 22.25780724 1.43812869 19.67590264 1.09375 17.09375 C0.9843811 16.30383667 0.87501221 15.51392334 0.7623291 14.70007324 C0.11108244 9.75452971 -0.09937546 4.98864791 0 0 Z " fill="#825ADC" transform="translate(3,88)"/>
<path d="M0 0 C2 3 2 3 3 11 C-12.51 11 -28.02 11 -44 11 C-44.33 9.02 -44.66 7.04 -45 5 C-44.52256348 5.65121826 -44.04512695 6.30243652 -43.55322266 6.97338867 C-39.84636823 9.91569108 -36.74996585 9.52329764 -32.1484375 9.42578125 C-31.29319489 9.42249313 -30.43795227 9.41920502 -29.55679321 9.41581726 C-27.75295376 9.40541061 -25.94914745 9.38548463 -24.14550781 9.35668945 C-21.37806907 9.31254895 -18.61149747 9.29524322 -15.84375 9.28320312 C-14.09113326 9.26978151 -12.33852723 9.25485921 -10.5859375 9.23828125 C-9.34062759 9.22720085 -9.34062759 9.22720085 -8.07015991 9.21589661 C-3.9012833 9.25045093 -3.9012833 9.25045093 0 8 C-0.185625 6.865625 -0.37125 5.73125 -0.5625 4.5625 C-0.706875 3.386875 -0.85125 2.21125 -1 1 C-0.67 0.67 -0.34 0.34 0 0 Z " fill="#BEB2DB" transform="translate(338,412)"/>
<path d="M0 0 C0.33 0 0.66 0 1 0 C1.02730462 1.87491693 1.04653244 3.74995225 1.0625 5.625 C1.07410156 6.66914063 1.08570312 7.71328125 1.09765625 8.7890625 C1.00117883 11.96123991 0.52876931 14.87438587 0 18 C-0.28644362 21.47143428 -0.43713798 24.95085167 -0.60546875 28.4296875 C-0.89676339 33.79352679 -0.89676339 33.79352679 -2 36 C-2.22467831 37.53668865 -2.40796805 39.07968054 -2.5625 40.625 C-2.64628906 41.44226563 -2.73007813 42.25953125 -2.81640625 43.1015625 C-2.87699219 43.72804688 -2.93757813 44.35453125 -3 45 C-3.66 45 -4.32 45 -5 45 C-4.40016743 34.79984221 -3.29435825 24.74604274 -1.9375 14.625 C-1.74897099 13.19536229 -1.56081819 11.76567492 -1.37304688 10.3359375 C-0.91967748 6.89004456 -0.46129972 3.4448414 0 0 Z " fill="#BE9EFA" transform="translate(124,340)"/>
<path d="M0 0 C0.33 0 0.66 0 1 0 C1.39036513 1.60049704 1.76178619 3.20562371 2.125 4.8125 C2.33382812 5.70582031 2.54265625 6.59914062 2.7578125 7.51953125 C3 10 3 10 1 13 C0.57724373 15.86766397 0.57724373 15.86766397 0.4375 19 C0.24004348 22.28825559 0.04453664 24.86639009 -1 28 C-1.38362772 30.56218514 -1.73860305 33.11791753 -2.0625 35.6875 C-2.15337891 36.38939453 -2.24425781 37.09128906 -2.33789062 37.81445312 C-2.56125994 39.54262623 -2.78098496 41.27126967 -3 43 C-3.66 43 -4.32 43 -5 43 C-3.56027982 28.63667392 -1.83455349 14.31797307 0 0 Z " fill="#BD9DFB" transform="translate(145,173)"/>
<path d="M0 0 C-3.04405968 2.02937312 -3.63877091 2.25115773 -7.05664062 2.25878906 C-7.86758179 2.26509338 -8.67852295 2.27139771 -9.51403809 2.27789307 C-10.82193298 2.27182037 -10.82193298 2.27182037 -12.15625 2.265625 C-13.05492798 2.26753845 -13.95360596 2.2694519 -14.8795166 2.27142334 C-16.77921834 2.2727841 -18.67892942 2.26909527 -20.57861328 2.26074219 C-23.48881895 2.25004111 -26.39840731 2.26064114 -29.30859375 2.2734375 C-31.1536472 2.27211589 -32.99870026 2.26955345 -34.84375 2.265625 C-35.71567993 2.26967346 -36.58760986 2.27372192 -37.48596191 2.27789307 C-38.70237366 2.26843658 -38.70237366 2.26843658 -39.94335938 2.25878906 C-40.65600952 2.25719788 -41.36865967 2.25560669 -42.10290527 2.25396729 C-44 2 -44 2 -47 0 C-45.98164063 0.00523682 -44.96328125 0.01047363 -43.9140625 0.01586914 C-40.10466403 0.03408736 -36.29526934 0.04549301 -32.48583984 0.05493164 C-30.84292959 0.05993363 -29.20002373 0.06673733 -27.55712891 0.07543945 C-25.18390819 0.0876874 -22.81074677 0.09326979 -20.4375 0.09765625 C-19.35106201 0.10539818 -19.35106201 0.10539818 -18.24267578 0.11329651 C-14.65303019 0.11368377 -11.18919614 -0.05629137 -7.62890625 -0.53344727 C-4.54893923 -0.92942527 -2.84437374 -1.06664015 0 0 Z " fill="#BF9DFC" transform="translate(436,407)"/>
<path d="M0 0 C0.66 0 1.32 0 2 0 C2.042721 1.66611905 2.04063832 3.33382885 2 5 C1.67 5.33 1.34 5.66 1 6 C0.72429392 8.11801824 0.50784382 10.2438028 0.31640625 12.37109375 C0.19330078 13.66724609 0.07019531 14.96339844 -0.05664062 16.29882812 C-0.24866071 18.3702356 -0.43788437 20.44181842 -0.62231445 22.51391602 C-0.80162797 24.50868988 -0.9924466 26.50241904 -1.18359375 28.49609375 C-1.29243896 29.69419678 -1.40128418 30.8922998 -1.51342773 32.12670898 C-2 35 -2 35 -4 37 C-4.18611236 29.41794432 -3.4646911 22.08635414 -2.5625 14.5625 C-2.42779297 13.37978516 -2.29308594 12.19707031 -2.15429688 10.97851562 C-1.13160878 2.26321756 -1.13160878 2.26321756 0 0 Z " fill="#BD9BFB" transform="translate(155,100)"/>
<path d="M0 0 C2.97 0 5.94 0 9 0 C7.07289294 19.96810934 7.07289294 19.96810934 5 29 C4.67 29 4.34 29 4 29 C3.97294271 27.22925083 3.95357805 25.45838289 3.9375 23.6875 C3.92589844 22.70136719 3.91429687 21.71523437 3.90234375 20.69921875 C4 18 4 18 5 15 C5.068991 12.93854893 5.08467727 10.87498599 5.0625 8.8125 C5.04896484 7.18248047 5.04896484 7.18248047 5.03515625 5.51953125 C5.02355469 4.68808594 5.01195312 3.85664062 5 3 C2.525 2.01 2.525 2.01 0 1 C0 0.67 0 0.34 0 0 Z " fill="#8459DE" transform="translate(149,81)"/>
<path d="M0 0 C1.0725 0.639375 2.145 1.27875 3.25 1.9375 C11.86858837 6.22399368 21.7222564 5.18711286 31 4 C26.63849638 7.8582532 22.78491022 8.09093948 17.08984375 7.80078125 C15.70468433 7.64716641 14.32052804 7.48424858 12.9375 7.3125 C12.24333984 7.24611328 11.54917969 7.17972656 10.83398438 7.11132812 C6.13677597 6.54480821 3.3211814 5.38592178 0 2 C0 1.34 0 0.68 0 0 Z " fill="#8860DF" transform="translate(392,366)"/>
<path d="M0 0 C0.66 0 1.32 0 2 0 C2 2.64 2 5.28 2 8 C2.66 8 3.32 8 4 8 C4.20496094 8.91523438 4.40992188 9.83046875 4.62109375 10.7734375 C4.89050781 11.96195312 5.15992188 13.15046875 5.4375 14.375 C5.70433594 15.55835938 5.97117187 16.74171875 6.24609375 17.9609375 C6.85634695 20.89494581 6.85634695 20.89494581 8 23 C8.04022391 25.3329866 8.04320247 27.66706666 8 30 C5.36784406 25.06714479 3.94418128 19.76417095 2.3125 14.4375 C1.97927734 13.38369141 1.64605469 12.32988281 1.30273438 11.24414062 C0.99271484 10.23416016 0.68269531 9.22417969 0.36328125 8.18359375 C0.07751221 7.26118896 -0.20825684 6.33878418 -0.50268555 5.38842773 C-1 3 -1 3 0 0 Z " fill="#C09EFC" transform="translate(289,280)"/>
<path d="M0 0 C0.33 0 0.66 0 1 0 C1.02685095 2.47923801 1.04676547 4.9581884 1.0625 7.4375 C1.07087891 8.14455078 1.07925781 8.85160156 1.08789062 9.58007812 C1.09653588 11.38693559 1.05220011 13.19387603 1 15 C0.67 15.33 0.34 15.66 0 16 C-0.24571387 19.55830081 -0.38439137 23.11571564 -0.5234375 26.6796875 C-1 30 -1 30 -2.5390625 31.9453125 C-3.02117187 32.29335937 -3.50328125 32.64140625 -4 33 C-3.41152509 21.87985348 -1.74178643 10.98749553 0 0 Z " fill="#BF9FF9" transform="translate(150,138)"/>
<path d="M0 0 C9.9 0 19.8 0 30 0 C29.01 0.495 29.01 0.495 28 1 C28 1.66 28 2.32 28 3 C24.27056178 2.86064456 20.54152904 2.71237699 16.8125 2.5625 C15.75740234 2.52318359 14.70230469 2.48386719 13.61523438 2.44335938 C12.59365234 2.40146484 11.57207031 2.35957031 10.51953125 2.31640625 C9.58214111 2.27974854 8.64475098 2.24309082 7.67895508 2.20532227 C5.04885018 2.00374401 2.57233586 1.57321679 0 1 C0 0.67 0 0.34 0 0 Z " fill="#C5A6FA" transform="translate(295,405)"/>
<path d="M0 0 C0.66 0.33 1.32 0.66 2 1 C2 3 2 3 -0.25 5.375 C-1.1575 6.24125 -2.065 7.1075 -3 8 C-3.680625 8.70125 -4.36125 9.4025 -5.0625 10.125 C-10.1 15 -10.1 15 -13 15 C-13.66 16.32 -14.32 17.64 -15 19 C-17.475 18.01 -17.475 18.01 -20 17 C-17.1687902 14.77547802 -14.28441395 13.03000073 -11.125 11.3125 C-6.08865976 8.35476764 -3.06964626 4.9164253 0 0 Z " fill="#C0A0F9" transform="translate(468,386)"/>
<path d="M0 0 C1 3 1 3 0.1796875 4.7890625 C-0.25085938 5.39492187 -0.68140625 6.00078125 -1.125 6.625 C-1.74761719 7.54152344 -1.74761719 7.54152344 -2.3828125 8.4765625 C-4.5239271 10.49355452 -6.10803907 10.57851652 -9 11 C-12.1221254 11.84565913 -15.24055612 12.70235048 -18.35546875 13.57421875 C-19.66451172 13.78498047 -19.66451172 13.78498047 -21 14 C-21.66 13.34 -22.32 12.68 -23 12 C-22.030625 11.731875 -21.06125 11.46375 -20.0625 11.1875 C-18.70803836 10.79267717 -17.35389925 10.39674703 -16 10 C-15.25492188 9.79375 -14.50984375 9.5875 -13.7421875 9.375 C-8.4157055 7.78608333 -4.99133566 5.89155227 -1 2 C-0.67 1.34 -0.34 0.68 0 0 Z " fill="#865CE0" transform="translate(270,238)"/>
<path d="M0 0 C3.04928703 4.57393054 4.15559143 9.69094341 5.6875 14.9375 C6.02072266 16.03513672 6.35394531 17.13277344 6.69726562 18.26367188 C7.16229492 19.84825195 7.16229492 19.84825195 7.63671875 21.46484375 C8.06537231 22.91298462 8.06537231 22.91298462 8.50268555 24.39038086 C9.00638501 27.03350486 8.88708963 28.49268576 8 31 C7.80664062 30.44570313 7.61328125 29.89140625 7.4140625 29.3203125 C7.15367187 28.59585937 6.89328125 27.87140625 6.625 27.125 C6.36976563 26.40570313 6.11453125 25.68640625 5.8515625 24.9453125 C5.06122217 22.81842006 5.06122217 22.81842006 3 21 C2 19 2 19 2.0625 15.25 C2.12427754 11.45411335 1.27548142 8.5872915 0 5 C-0.125 2.125 -0.125 2.125 0 0 Z " fill="#8B5DED" transform="translate(288,283)"/>
<path d="M0 0 C0.66 1.32 1.32 2.64 2 4 C2.66 4 3.32 4 4 4 C4.0825 5.2375 4.165 6.475 4.25 7.75 C4.79211943 12.86372356 6.37504191 17.40046863 8.16015625 22.203125 C8.99117084 24.97059683 9.16226538 27.13156677 9 30 C6.54622557 27.54622557 6.19935496 25.77391772 5.2734375 22.44140625 C4.9640625 21.33345703 4.6546875 20.22550781 4.3359375 19.08398438 C4.01882813 17.92189453 3.70171875 16.75980469 3.375 15.5625 C3.05015625 14.40427734 2.7253125 13.24605469 2.390625 12.05273438 C0 3.4093192 0 3.4093192 0 0 Z " fill="#C0A0FB" transform="translate(315,374)"/>
<path d="M0 0 C0.33 0 0.66 0 1 0 C1.18956939 6.63492861 0.45561368 12.93984119 -0.5 19.5 C-0.64308594 20.51320313 -0.78617187 21.52640625 -0.93359375 22.5703125 C-1.28415582 25.04761782 -1.63972847 27.52409137 -2 30 C-2.33 30 -2.66 30 -3 30 C-3.22197585 27.89722877 -3.42713637 25.79267698 -3.625 23.6875 C-3.74101563 22.51574219 -3.85703125 21.34398437 -3.9765625 20.13671875 C-4 17 -4 17 -2 14 C-1.55058745 11.61700383 -1.18393057 9.21774516 -0.875 6.8125 C-0.70742187 5.54019531 -0.53984375 4.26789063 -0.3671875 2.95703125 C-0.24601562 1.98121094 -0.12484375 1.00539063 0 0 Z " fill="#8B5BEC" transform="translate(128,300)"/>
<path d="M0 0 C0.66 0.33 1.32 0.66 2 1 C-2.75064339 7.9371978 -7.88290861 12.54644784 -15 17 C-15 16.01 -15 15.02 -15 14 C-13.68 13.67 -12.36 13.34 -11 13 C-11 12.01 -11 11.02 -11 10 C-9.34928604 8.97388051 -7.68029994 7.97691857 -6 7 C-4.98199424 5.68036291 -3.97751635 4.34990354 -3 3 C-2.34 3 -1.68 3 -1 3 C-0.67 2.01 -0.34 1.02 0 0 Z " fill="#8A5DEB" transform="translate(306,263)"/>
<path d="M0 0 C0.33 0 0.66 0 1 0 C0.85758352 2.35441716 0.71115192 4.70847484 0.5625 7.0625 C0.48128906 8.37347656 0.40007812 9.68445313 0.31640625 11.03515625 C0.02101751 14.73663238 -0.43265388 18.33370448 -1 22 C-1.99 22.33 -2.98 22.66 -4 23 C-3.125 15.125 -3.125 15.125 -2 14 C-1.79068103 11.83703727 -1.63202931 9.6690529 -1.5 7.5 C-1.11111111 1.11111111 -1.11111111 1.11111111 0 0 Z " fill="#B9ACD9" transform="translate(136,400)"/>
<path d="M0 0 C1.4540625 0.0309375 1.4540625 0.0309375 2.9375 0.0625 C2.9375 0.7225 2.9375 1.3825 2.9375 2.0625 C1.60416667 3.39583333 0.27083333 4.72916667 -1.0625 6.0625 C-1.3925 7.0525 -1.7225 8.0425 -2.0625 9.0625 C-2.7225 9.0625 -3.3825 9.0625 -4.0625 9.0625 C-4.16015625 2.91015625 -4.16015625 2.91015625 -4.0625 1.0625 C-3.0625 0.0625 -3.0625 0.0625 0 0 Z " fill="#8658E4" transform="translate(115.0625,80.9375)"/>
<path d="M0 0 C0.33 0 0.66 0 1 0 C1.33772739 2.70784994 1.67030687 5.41616996 2 8.125 C2.09539062 8.88554687 2.19078125 9.64609375 2.2890625 10.4296875 C2.79830188 14.64909952 3.10888068 18.74004344 3 23 C1 21 1 21 0.8046875 18.3984375 C0.82789062 17.40070313 0.85109375 16.40296875 0.875 15.375 C0.89304687 14.37210938 0.91109375 13.36921875 0.9296875 12.3359375 C0.95289062 11.56507813 0.97609375 10.79421875 1 10 C0.01 10 -0.98 10 -2 10 C-2 9.01 -2 8.02 -2 7 C-1.34 7 -0.68 7 0 7 C0 4.69 0 2.38 0 0 Z " fill="#B9AAD9" transform="translate(78,202)"/>
<path d="M0 0 C2.475 0.99 2.475 0.99 5 2 C5.33 6.29 5.66 10.58 6 15 C4.37413403 11.74826806 3.09284601 8.65996881 1.875 5.25 C1.52179688 4.26515625 1.16859375 3.2803125 0.8046875 2.265625 C0.53914063 1.51796875 0.27359375 0.7703125 0 0 Z " fill="#BE9EF7" transform="translate(310,110)"/>
<path d="M0 0 C-2.88449652 2.3770388 -5.42337774 3.68137506 -9 4.75 C-10.2684375 5.14445312 -10.2684375 5.14445312 -11.5625 5.546875 C-14.1092225 6.02030418 -15.5750086 5.83078409 -18 5 C-17.30132812 4.72285156 -16.60265625 4.44570313 -15.8828125 4.16015625 C-14.97273438 3.79792969 -14.06265625 3.43570312 -13.125 3.0625 C-12.22007812 2.70285156 -11.31515625 2.34320313 -10.3828125 1.97265625 C-6.54225071 0.40495152 -4.23458238 -0.09205614 0 0 Z " fill="#8C5BEF" transform="translate(452,400)"/>
<path d="M0 0 C3.51769206 5.27653809 3.10579441 10.86392402 3 17 C2.5359375 16.0409375 2.5359375 16.0409375 2.0625 15.0625 C1.1654837 13.06389179 1.1654837 13.06389179 0 12 C-0.07244053 9.98035801 -0.08377188 7.95832876 -0.0625 5.9375 C-0.05347656 4.83277344 -0.04445313 3.72804687 -0.03515625 2.58984375 C-0.02355469 1.73519531 -0.01195312 0.88054687 0 0 Z " fill="#9064EF" transform="translate(315,127)"/>
<path d="M0 0 C3.3 0 6.6 0 10 0 C10 1.32 10 2.64 10 4 C8.68 4.33 7.36 4.66 6 5 C5.67 3.68 5.34 2.36 5 1 C3.35 1 1.7 1 0 1 C0 0.67 0 0.34 0 0 Z " fill="#8854ED" transform="translate(38,81)"/>
<path d="M0 0 C-6.49976102 2.71975816 -11.04952816 3.21357445 -18 2 C-18 1.67 -18 1.34 -18 1 C-15.56348622 0.63737003 -13.12623023 0.28461036 -10.6875 -0.0625 C-9.99720703 -0.16626953 -9.30691406 -0.27003906 -8.59570312 -0.37695312 C-5.30415164 -0.83808836 -3.19783876 -1.06594625 0 0 Z " fill="#8159DB" transform="translate(423,371)"/>
<path d="M0 0 C2.67550292 2.67550292 2.83209389 4.94879894 3.625 8.625 C3.88539063 9.81351562 4.14578125 11.00203125 4.4140625 12.2265625 C4.70410156 13.59941406 4.70410156 13.59941406 5 15 C2.01649566 12.25289354 1.11867834 9.91537419 0 6 C-0.226875 5.2575 -0.45375 4.515 -0.6875 3.75 C-1 2 -1 2 0 0 Z " fill="#BAABDE" transform="translate(306,300)"/>
<path d="M0 0 C0.33 0 0.66 0 1 0 C1.23268915 6.28260706 0.40454548 11.88019467 -1 18 C-1.33 18 -1.66 18 -2 18 C-2.20852314 11.59370576 -2.1583195 6.07027358 0 0 Z " fill="#885CE9" transform="translate(155,92)"/>
<path d="M0 0 C0.66 0 1.32 0 2 0 C2.99 4.29 3.98 8.58 5 13 C0.5 8.5 0.5 8.5 0.25 4.25 C0.19328125 3.45078125 0.1365625 2.6515625 0.078125 1.828125 C0.05234375 1.22484375 0.0265625 0.6215625 0 0 Z " fill="#B8A9DD" transform="translate(331,390)"/>
<path d="M0 0 C0.33 0.66 0.66 1.32 1 2 C-0.98 4.97 -2.96 7.94 -5 11 C-6 9 -6 9 -5.3125 6.625 C-3.90601689 3.81203377 -2.32442123 2.0919791 0 0 Z " fill="#B9ACDA" transform="translate(489,398)"/>
<path d="M0 0 C1.4835001 0.42257276 2.96176424 0.86356322 4.4375 1.3125 C5.67306641 1.67794922 5.67306641 1.67794922 6.93359375 2.05078125 C7.61550781 2.36402344 8.29742187 2.67726563 9 3 C9.33 3.99 9.66 4.98 10 6 C9.34 6.66 8.68 7.32 8 8 C5.33333333 5.33333333 2.66666667 2.66666667 0 0 Z " fill="#8761DC" transform="translate(365,396)"/>
<path d="M0 0 C0.33 0 0.66 0 1 0 C0.67 4.95 0.34 9.9 0 15 C-0.33 15 -0.66 15 -1 15 C-1 13.02 -1 11.04 -1 9 C-1.66 9 -2.32 9 -3 9 C-2.67 8.01 -2.34 7.02 -2 6 C-1.34 6 -0.68 6 0 6 C0 4.02 0 2.04 0 0 Z " fill="#B5A3DC" transform="translate(173,110)"/>
<path d="M0 0 C-6.75 4 -6.75 4 -9 4 C-8.67 2.68 -8.34 1.36 -8 0 C-4.71303767 -0.79953138 -3.28976808 -1.09658936 0 0 Z " fill="#BAACDD" transform="translate(476,416)"/>
<path d="M0 0 C0.99 0.33 1.98 0.66 3 1 C0.69 3.64 -1.62 6.28 -4 9 C-4.33 8.01 -4.66 7.02 -5 6 C-4.360625 5.566875 -3.72125 5.13375 -3.0625 4.6875 C-0.73253997 3.08760823 -0.73253997 3.08760823 0 0 Z " fill="#8E62EA" transform="translate(465,387)"/>
<path d="M0 0 C1.98 0.99 1.98 0.99 4 2 C3.625 4.4375 3.625 4.4375 3 7 C2.01 7.495 2.01 7.495 1 8 C0.67 5.36 0.34 2.72 0 0 Z " fill="#8E5AF5" transform="translate(88,289)"/>
<path d="M0 0 C1.98 0 3.96 0 6 0 C6 0.99 6 1.98 6 3 C4.35 3 2.7 3 1 3 C0.67 2.01 0.34 1.02 0 0 Z " fill="#C2AAE6" transform="translate(77,362)"/>
<path d="M0 0 C3.36720387 1.39332574 4.9859524 2.9789286 7 6 C4.83125748 5.49396008 3.00032373 5.00016187 1 4 C0.375 1.9375 0.375 1.9375 0 0 Z " fill="#B8A8DC" transform="translate(314,111)"/>
<path d="M0 0 C1.98 1.65 3.96 3.3 6 5 C5.67 5.66 5.34 6.32 5 7 C3.02 6.01 1.04 5.02 -1 4 C-0.67 2.68 -0.34 1.36 0 0 Z " fill="#835CDD" transform="translate(300,96)"/>
</svg>
